<svg xmlns="http://www.w3.org/2000/svg" xmlns:xlink="http://www.w3.org/1999/xlink" class="httpgd" width="300.00" height="200.00" viewBox="0 0 300.00 200.00">
<defs>
  <style type='text/css'><![CDATA[
    .httpgd line, .httpgd polyline, .httpgd polygon, .httpgd path, .httpgd rect, .httpgd circle {
      fill: none;
      stroke: #000000;
      stroke-linecap: round;
      stroke-linejoin: round;
      stroke-miterlimit: 10.00;
    }
  ]]></style>
<clipPath id="c0"><rect x="0.00" y="0.00" width="300.00" height="200.00"/></clipPath>
<clipPath id="c1"><rect x="7.20" y="7.20" width="285.60" height="185.60"/></clipPath>
<clipPath id="c2"><rect x="0.00" y="0.00" width="300.00" height="200.00"/></clipPath>
<clipPath id="c3"><rect x="7.20" y="7.20" width="285.60" height="185.60"/></clipPath>
</defs>
<rect width="100%" height="100%" style="stroke: none;fill: #FFFFFF;"/>
<g clip-path="url(#c0)">
</g><g clip-path="url(#c1)">
<polyline points="17.78,185.93 20.42,185.93 23.07,185.93 25.71,185.92 28.36,185.92 31.00,185.91 33.64,185.90 36.29,185.88 38.93,185.85 41.58,185.80 44.22,185.74 46.87,185.65 49.51,185.54 52.16,185.40 54.80,185.23 57.44,185.02 60.09,184.77 62.73,184.47 65.38,184.12 68.02,183.71 70.67,183.24 73.31,182.70 75.96,182.09 78.60,181.41 81.24,180.64 83.89,179.78 86.53,178.83 89.18,177.79 91.82,176.64 94.47,175.39 97.11,174.03 99.76,172.56 102.40,170.97 105.04,169.26 107.69,167.42 110.33,165.46 112.98,163.38 115.62,161.16 118.27,158.81 120.91,156.32 123.56,153.70 126.20,150.95 128.84,148.07 131.49,145.05 134.13,141.89 136.78,138.61 139.42,135.20 142.07,131.67 144.71,128.02 147.36,124.25 150.00,120.37 152.64,116.38 155.29,112.30 157.93,108.13 160.58,103.87 163.22,99.54 165.87,95.15 168.51,90.71 171.16,86.22 173.80,81.70 176.44,77.18 179.09,72.65 181.73,68.13 184.38,63.65 187.02,59.22 189.67,54.86 192.31,50.59 194.96,46.42 197.60,42.39 200.24,38.52 202.89,34.82 205.53,31.33 208.18,28.07 210.82,25.08 213.47,22.37 216.11,19.99 218.76,17.96 221.40,16.31 224.04,15.10 226.69,14.34 229.33,14.07 231.98,14.35 234.62,15.20 237.27,16.68 239.91,18.82 242.56,21.67 245.20,25.27 247.84,29.69 250.49,34.96 253.13,41.14 255.78,48.29 258.42,56.45 261.07,65.70 263.71,76.08 266.36,87.65 269.00,100.49 271.64,114.66 274.29,130.21 276.93,147.23 279.58,165.77 282.22,185.93" style="stroke-width: 1.50;"/>
</g><g clip-path="url(#c2)">
<g><text x="150.00" y="247.52" text-anchor="middle" style="font-family: Arial;font-size: 12.00px;" textLength="6.00px" lengthAdjust="spacingAndGlyphs">x</text></g>
<g><text transform="translate(-38.88,100.00) rotate(-90.00)" text-anchor="middle" style="font-family: Arial;font-size: 12.00px;" textLength="176.79px" lengthAdjust="spacingAndGlyphs">dbeta(x, shape1 = 5, shape2 = 2)</text></g>
</g><g clip-path="url(#c3)">
<polyline points="17.78,185.93 20.42,185.92 23.07,185.91 25.71,185.89 28.36,185.84 31.00,185.76 33.64,185.64 36.29,185.48 38.93,185.27 41.58,185.00 44.22,184.67 46.87,184.27 49.51,183.80 52.16,183.25 54.80,182.63 57.44,181.91 60.09,181.11 62.73,180.22 65.38,179.24 68.02,178.16 70.67,176.98 73.31,175.69 75.96,174.31 78.60,172.82 81.24,171.23 83.89,169.54 86.53,167.74 89.18,165.83 91.82,163.82 94.47,161.71 97.11,159.49 99.76,157.18 102.40,154.76 105.04,152.25 107.69,149.65 110.33,146.95 112.98,144.17 115.62,141.30 118.27,138.35 120.91,135.32 123.56,132.22 126.20,129.06 128.84,125.83 131.49,122.55 134.13,119.21 136.78,115.83 139.42,112.42 142.07,108.97 144.71,105.50 147.36,102.01 150.00,98.52 152.64,95.02 155.29,91.54 157.93,88.07 160.58,84.63 163.22,81.22 165.87,77.86 168.51,74.56 171.16,71.32 173.80,68.16 176.44,65.09 179.09,62.12 181.73,59.27 184.38,56.54 187.02,53.94 189.67,51.50 192.31,49.22 194.96,47.12 197.60,45.21 200.24,43.50 202.89,42.02 205.53,40.77 208.18,39.77 210.82,39.03 213.47,38.58 216.11,38.42 218.76,38.58 221.40,39.08 224.04,39.92 226.69,41.12 229.33,42.72 231.98,44.71 234.62,47.13 237.27,49.98 239.91,53.30 242.56,57.09 245.20,61.39 247.84,66.20 250.49,71.56 253.13,77.47 255.78,83.97 258.42,91.08 261.07,98.80 263.71,107.18 266.36,116.23 269.00,125.97 271.64,136.43 274.29,147.63 276.93,159.60 279.58,172.36 282.22,185.93" style="stroke-width: 0.75;"/>
<polyline points="17.78,185.93 20.42,185.84 23.07,185.60 25.71,185.19 28.36,184.64 31.00,183.93 33.64,183.09 36.29,182.10 38.93,180.99 41.58,179.74 44.22,178.37 46.87,176.89 49.51,175.29 52.16,173.59 54.80,171.78 57.44,169.88 60.09,167.88 62.73,165.80 65.38,163.63 68.02,161.39 70.67,159.07 73.31,156.69 75.96,154.25 78.60,151.75 81.24,149.19 83.89,146.59 86.53,143.95 89.18,141.27 91.82,138.56 94.47,135.82 97.11,133.06 99.76,130.28 102.40,127.50 105.04,124.70 107.69,121.90 110.33,119.11 112.98,116.33 115.62,113.55 118.27,110.80 120.91,108.07 123.56,105.37 126.20,102.70 128.84,100.07 131.49,97.49 134.13,94.95 136.78,92.47 139.42,90.04 142.07,87.68 144.71,85.39 147.36,83.17 150.00,81.04 152.64,78.98 155.29,77.01 157.93,75.14 160.58,73.37 163.22,71.70 165.87,70.14 168.51,68.69 171.16,67.37 173.80,66.17 176.44,65.09 179.09,64.15 181.73,63.35 184.38,62.70 187.02,62.19 189.67,61.84 192.31,61.65 194.96,61.62 197.60,61.76 200.24,62.08 202.89,62.58 205.53,63.26 208.18,64.13 210.82,65.19 213.47,66.46 216.11,67.92 218.76,69.60 221.40,71.50 224.04,73.61 226.69,75.95 229.33,78.52 231.98,81.32 234.62,84.37 237.27,87.65 239.91,91.19 242.56,94.99 245.20,99.04 247.84,103.36 250.49,107.95 253.13,112.81 255.78,117.96 258.42,123.39 261.07,129.11 263.71,135.12 266.36,141.44 269.00,148.06 271.64,154.99 274.29,162.24 276.93,169.81 279.58,177.70 282.22,185.93" style="stroke-width: 0.38;"/>
<polyline points="17.78,185.93 20.42,181.77 23.07,177.70 25.71,173.72 28.36,169.81 31.00,166.00 33.64,162.26 36.29,158.61 38.93,155.05 41.58,151.56 44.22,148.17 46.87,144.85 49.51,141.62 52.16,138.47 54.80,135.41 57.44,132.43 60.09,129.54 62.73,126.73 65.38,124.00 68.02,121.36 70.67,118.80 73.31,116.32 75.96,113.93 78.60,111.62 81.24,109.40 83.89,107.26 86.53,105.20 89.18,103.23 91.82,101.34 94.47,99.54 97.11,97.82 99.76,96.18 102.40,94.63 105.04,93.16 107.69,91.78 110.33,90.48 112.98,89.26 115.62,88.13 118.27,87.08 120.91,86.11 123.56,85.23 126.20,84.43 128.84,83.72 131.49,83.09 134.13,82.55 136.78,82.08 139.42,81.71 142.07,81.41 144.71,81.20 147.36,81.08 150.00,81.04 152.64,81.08 155.29,81.20 157.93,81.41 160.58,81.71 163.22,82.08 165.87,82.55 168.51,83.09 171.16,83.72 173.80,84.43 176.44,85.23 179.09,86.11 181.73,87.08 184.38,88.13 187.02,89.26 189.67,90.48 192.31,91.78 194.96,93.16 197.60,94.63 200.24,96.18 202.89,97.82 205.53,99.54 208.18,101.34 210.82,103.23 213.47,105.20 216.11,107.26 218.76,109.40 221.40,111.62 224.04,113.93 226.69,116.32 229.33,118.80 231.98,121.36 234.62,124.00 237.27,126.73 239.91,129.54 242.56,132.43 245.20,135.41 247.84,138.47 250.49,141.62 253.13,144.85 255.78,148.17 258.42,151.56 261.07,155.05 263.71,158.61 266.36,162.26 269.00,166.00 271.64,169.81 274.29,173.72 276.93,177.70 279.58,181.77 282.22,185.93" style="stroke-width: 0.19;"/>
<line x1="17.78" y1="192.80" x2="17.78" y2="7.20" style="stroke-width: 0.75;stroke: #D3D3D3; stroke-dasharray: 1.00, 3.00;"/>
<line x1="70.67" y1="192.80" x2="70.67" y2="7.20" style="stroke-width: 0.75;stroke: #D3D3D3; stroke-dasharray: 1.00, 3.00;"/>
<line x1="123.56" y1="192.80" x2="123.56" y2="7.20" style="stroke-width: 0.75;stroke: #D3D3D3; stroke-dasharray: 1.00, 3.00;"/>
<line x1="176.44" y1="192.80" x2="176.44" y2="7.20" style="stroke-width: 0.75;stroke: #D3D3D3; stroke-dasharray: 1.00, 3.00;"/>
<line x1="229.33" y1="192.80" x2="229.33" y2="7.20" style="stroke-width: 0.75;stroke: #D3D3D3; stroke-dasharray: 1.00, 3.00;"/>
<line x1="282.22" y1="192.80" x2="282.22" y2="7.20" style="stroke-width: 0.75;stroke: #D3D3D3; stroke-dasharray: 1.00, 3.00;"/>
<line x1="7.20" y1="185.93" x2="292.80" y2="185.93" style="stroke-width: 0.75;stroke: #D3D3D3; stroke-dasharray: 1.00, 3.00;"/>
<line x1="7.20" y1="150.96" x2="292.80" y2="150.96" style="stroke-width: 0.75;stroke: #D3D3D3; stroke-dasharray: 1.00, 3.00;"/>
<line x1="7.20" y1="116.00" x2="292.80" y2="116.00" style="stroke-width: 0.75;stroke: #D3D3D3; stroke-dasharray: 1.00, 3.00;"/>
<line x1="7.20" y1="81.04" x2="292.80" y2="81.04" style="stroke-width: 0.75;stroke: #D3D3D3; stroke-dasharray: 1.00, 3.00;"/>
<line x1="7.20" y1="46.07" x2="292.80" y2="46.07" style="stroke-width: 0.75;stroke: #D3D3D3; stroke-dasharray: 1.00, 3.00;"/>
<line x1="7.20" y1="11.11" x2="292.80" y2="11.11" style="stroke-width: 0.75;stroke: #D3D3D3; stroke-dasharray: 1.00, 3.00;"/>
</g>
</svg>